<?xml version="1.0" encoding="UTF-8"?>
<svg id="Layer_1" data-name="Layer 1" xmlns="http://www.w3.org/2000/svg" xmlns:xlink="http://www.w3.org/1999/xlink" viewBox="0 0 220.82 188.83">
  <defs>
    <style>
      .cls-1 {
        fill: none;
      }

      .cls-1, .cls-2, .cls-3 {
        stroke-width: 0px;
      }

      .cls-2 {
        fill: #f1593f;
      }

      .cls-3 {
        fill: #fddd63;
      }

      .cls-4 {
        clip-path: url(#clippath);
      }
    </style>
    <clipPath id="clippath">
      <path class="cls-1" d="M12.7-2v192.83h188.33V-2H12.7ZM102.41,162.07c-2.18,1.56-4.47,3.13-6.83,4.67-.24-.1-.49-.19-.73-.29-2.25-.91-4.42-1.83-6.56-2.75l.16-.22c3.83-1.35,7.86-2.82,12.33-4.49.19-.08.41-.12.63-.12.75,0,1.42.5,1.65,1.25.23.74-.02,1.5-.64,1.94Z"/>
    </clipPath>
  </defs>
  <path class="cls-3" d="M191.52,40.86c3.28-8.37,6.06-18.42,3.38-27.12-2.94-9.41-14.63-9.56-22.02-8.37-12.65,3.58-24.48,9.92-35.58,16.9-11.19,7.1-21.64,15.37-31.32,24.42-26.91,24.74-47.73,55.4-64.17,87.9-4.3,8.28-8.73,17.45-11.12,26.1-.77,2.81-1.24,5.58-1.25,7.88.06,2.71.46,4.85,2.98,6.09,3.49,1.58,7.42,1.56,11.63,1.33,6.1-.44,12.51-1.81,18.87-3.45,12.75-3.36,25.5-7.86,38.2-12.61.81-.32,1.4.83.72,1.32-17.07,12.22-46.59,29.04-67.96,27.48-10.88-.78-18.59-8.45-19.13-19.46-.77-17.79,10.12-36.27,18.76-50.92,20.03-32.06,44-62.24,74.06-85.48,16.41-12.56,34.43-23.3,54.11-29.87,3.42-1.1,6.65-2.08,10.25-2.77,2.54-.24,5.11-.32,7.72-.15,16.59.85,22.02,12.55,18.25,27.66-1.15,4.8-2.84,9.37-5.02,13.76-.45.88-1.76.22-1.35-.65h0Z"/>
  <path class="cls-2" d="M94.84,166.45c-48.36-19.62-72.63-41.46-84.75-59.23-13.01-19.11-13.62-44.36-.84-63.63,7.1-10.73,17.21-17.99,31.07-20.89,19.07-4,38.82,2.03,53.21,15.17,2.55,2.33,4.97,4.79,7.39,7.25,2.76,2.83,5.51,5.65,8.42,8.31,4.98,4.55,11.18,7.71,17.75,9.18,4.19.94,8.26.74,12.48.92,4.64.19,9.31-.19,13.96-.02,1.54.06,3.05.15,4.52.25.01,0,.02,0,.03,0,17.86,1.25,30.53,5.27,39.53,10.28,15.29,8.51,23.97,25.13,23.13,42.62-2.78,58.07-65.23,74.41-125.92,49.8Z"/>
  <g class="cls-4">
    <path class="cls-3" d="M191.52,40.86c3.28-8.37,6.06-18.42,3.38-27.12-2.94-9.41-14.63-9.56-22.02-8.37-12.65,3.58-24.48,9.92-35.58,16.9-11.19,7.1-21.64,15.37-31.32,24.42-26.91,24.74-47.73,55.4-64.17,87.9-4.3,8.28-8.73,17.45-11.12,26.1-.77,2.81-1.24,5.58-1.25,7.88.06,2.71.46,4.85,2.98,6.09,3.49,1.58,7.42,1.56,11.63,1.33,6.1-.44,12.51-1.81,18.87-3.45,12.75-3.36,25.5-7.86,38.2-12.61.81-.32,1.4.83.72,1.32-17.07,12.22-46.59,29.04-67.96,27.48-10.88-.78-18.59-8.45-19.13-19.46-.77-17.79,10.12-36.27,18.76-50.92,20.03-32.06,44-62.24,74.06-85.48,16.41-12.56,34.43-23.3,54.11-29.87,3.42-1.1,6.65-2.08,10.25-2.77,2.54-.24,5.11-.32,7.72-.15,16.59.85,22.02,12.55,18.25,27.66-1.15,4.8-2.84,9.37-5.02,13.76-.45.88-1.76.22-1.35-.65h0Z"/>
  </g>
</svg>